# xmcd
#
# Track frame offsets: 
#        150
#        15400
#        31971
#
# Disc length: 627 seconds
#
# Revision: 3
# Processed by: cddbd v1.5.2PL0 Copyright (c) Steve Scherf et al.
# Submitted via: ExactAudioCopy v1.3
#
DISCID=15027103
DTITLE=One Room - サーチライトと月灯り
DYEAR=2018
DGENRE=Anime
TTITLE0=天月真白(水瀬いのり) - サーチライトと月灯り
TTITLE1=天月真白(水瀬いのり) - サーチライトと月灯り (fakejazzmix)
TTITLE2=天月真白(水瀬いのり) - サーチライトと月灯り (Instrumental)
EXTD=YEAR: 2005 ID3G: 43
EXTT0=
EXTT1=
EXTT2=
PLAYORDER=
